<?xml version="1.0" standalone="no"?>
<!DOCTYPE svg PUBLIC "-//W3C//DTD SVG 20010904//EN"
 "http://www.w3.org/TR/2001/REC-SVG-20010904/DTD/svg10.dtd">
<svg version="1.0" xmlns="http://www.w3.org/2000/svg"
 width="99.082890pt" height="102.824265pt" viewBox="0 0 99.082890 102.824265"
 preserveAspectRatio="xMidYMid meet">
<metadata>
Created by potrace 1.16, written by Peter Selinger 2001-2019
</metadata>
<g transform="translate(-1.031930,102.821302) scale(0.100000,-0.100000)"
fill="#FFFFFF" stroke="none">
<path d="M440 1023 c0 -5 35 -17 78 -27 74 -16 97 -21 187 -45 22 -5 64 -16
94 -23 47 -12 56 -19 77 -57 46 -80 118 -184 121 -174 3 8 -118 213 -141 240
-2 3 -143 39 -241 62 -123 28 -175 35 -175 24z"/>
<path d="M366 992 c-6 -9 24 -18 249 -72 94 -22 181 -45 195 -51 14 -5 37 -31
53 -57 47 -81 131 -195 135 -184 3 10 -18 46 -116 194 -46 71 -44 70 -157 97
-22 5 -104 25 -182 45 -149 38 -169 41 -177 28z"/>
<path d="M298 962 c-10 -2 -18 -8 -18 -13 0 -5 8 -9 18 -9 40 0 492 -118 506
-133 6 -7 23 -28 36 -47 13 -19 29 -40 35 -47 5 -6 33 -43 60 -82 48 -67 65
-83 65 -61 0 6 -39 63 -86 128 -48 64 -88 122 -91 129 -5 13 -39 27 -108 43
-27 6 -66 15 -85 20 -27 7 -225 55 -305 74 -5 1 -18 1 -27 -2z"/>
<path d="M200 921 c0 -5 21 -14 48 -20 26 -6 112 -28 192 -50 357 -96 327 -84
386 -158 41 -51 127 -154 157 -187 13 -16 17 -16 17 -5 0 13 -39 68 -118 164
-10 11 -30 37 -45 58 -50 66 -63 73 -225 115 -330 86 -412 103 -412 83z"/>
<path d="M127 893 c-18 -17 4 -27 143 -63 57 -15 392 -110 430 -122 24 -8 75
-53 167 -147 142 -146 182 -160 57 -21 -147 165 -179 197 -204 202 -14 3 -63
17 -110 31 -89 27 -123 37 -337 92 -150 40 -138 37 -146 28z"/>
<path d="M96 825 c-6 -18 -9 -16 94 -45 130 -36 318 -93 405 -122 116 -39 159
-66 251 -155 132 -128 154 -146 154 -128 0 8 -60 75 -133 148 l-133 132 -95
31 c-52 17 -114 37 -139 44 -25 7 -65 19 -90 27 -25 8 -97 28 -160 44 -63 16
-122 32 -131 35 -10 2 -19 -2 -23 -11z"/>
<path d="M74 759 c-10 -17 5 -25 81 -47 255 -73 605 -201 605 -221 0 -4 13
-15 30 -24 16 -10 35 -23 42 -30 26 -26 155 -127 162 -127 20 0 -2 31 -50 70
-31 25 -68 56 -83 70 -131 123 -210 157 -666 291 -114 33 -112 33 -121 18z"/>
<path d="M45 690 c-8 -13 3 -30 20 -30 12 0 176 -52 220 -69 11 -5 67 -26 125
-46 263 -95 309 -117 464 -222 62 -43 112 -71 117 -66 11 11 -195 170 -266
206 -99 50 -206 91 -478 181 -175 59 -192 62 -202 46z"/>
<path d="M32 613 c2 -11 24 -24 58 -36 70 -23 129 -45 260 -95 201 -77 235
-90 260 -97 28 -8 153 -70 215 -105 116 -67 123 -71 130 -60 4 6 5 12 4 14 -2
1 -22 13 -44 27 -147 95 -202 124 -338 177 -220 88 -513 192 -539 192 -5 0 -8
-8 -6 -17z"/>
<path d="M22 543 c2 -10 27 -27 63 -41 33 -14 69 -28 80 -33 11 -4 58 -22 105
-39 47 -18 130 -49 185 -71 55 -21 103 -39 108 -39 11 0 86 -33 216 -96 79
-39 117 -52 124 -45 6 6 9 13 6 15 -2 2 -56 31 -119 63 -119 62 -177 85 -572
234 -46 17 -104 40 -130 50 -58 23 -70 24 -66 2z"/>
<path d="M20 476 c0 -32 30 -45 420 -191 216 -81 233 -88 315 -127 67 -32 82
-36 93 -24 12 12 -1 21 -83 60 -54 25 -101 46 -106 46 -5 0 -28 9 -51 20 -24
10 -117 47 -208 80 -247 92 -271 101 -322 127 -56 27 -58 27 -58 9z"/>
<path d="M20 406 c0 -19 49 -59 91 -75 19 -7 43 -17 54 -22 11 -5 47 -18 80
-29 33 -12 69 -25 80 -30 11 -5 40 -16 65 -24 82 -27 254 -93 314 -120 32 -15
66 -26 74 -24 31 6 21 24 -26 42 -26 11 -67 28 -92 39 -73 31 -61 26 -325 123
-201 73 -295 113 -295 126 0 4 -4 8 -10 8 -5 0 -10 -6 -10 -14z"/>
<path d="M10 344 c1 -48 51 -78 235 -139 61 -21 124 -43 140 -50 17 -7 62 -24
100 -38 39 -14 106 -38 150 -55 75 -27 105 -31 105 -12 0 7 -51 29 -237 99
-83 32 -307 112 -386 138 -26 9 -61 30 -77 47 -26 26 -30 27 -30 10z"/>
<path d="M20 263 c0 -15 45 -60 75 -75 17 -9 80 -32 140 -52 61 -20 118 -41
127 -46 10 -6 27 -10 37 -10 11 0 22 -4 25 -9 3 -5 16 -11 28 -14 13 -2 54
-16 93 -31 69 -26 135 -34 135 -17 0 5 -10 11 -22 14 -13 3 -61 19 -108 37
-47 17 -110 40 -140 50 -30 10 -93 33 -140 50 -47 17 -107 39 -135 47 -27 9
-65 27 -82 40 -18 13 -33 20 -33 16z"/>
<path d="M115 139 c8 -12 76 -43 216 -99 80 -31 118 -40 150 -38 l44 3 -90 31
c-49 18 -142 50 -205 73 -129 46 -124 45 -115 30z"/>
</g>
</svg>
