<?xml version="1.0" standalone="no"?>
<!DOCTYPE svg PUBLIC "-//W3C//DTD SVG 20010904//EN"
 "http://www.w3.org/TR/2001/REC-SVG-20010904/DTD/svg10.dtd">
<svg version="1.0" xmlns="http://www.w3.org/2000/svg"
 width="316.952962pt" height="102.824265pt" viewBox="0 0 316.952962 102.824265"
 preserveAspectRatio="xMidYMid meet">
<metadata>
Created by potrace 1.16, written by Peter Selinger 2001-2019
</metadata>
<g transform="translate(-41.031930,210.821302) scale(0.100000,-0.100000)"
fill="#FFFFFF" stroke="none">
<path d="M840 2103 c0 -5 35 -17 78 -27 74 -16 97 -21 187 -45 22 -5 64 -16
94 -23 47 -12 56 -19 77 -57 46 -80 118 -184 121 -174 3 8 -118 213 -141 240
-2 3 -143 39 -241 62 -123 28 -175 35 -175 24z"/>
<path d="M766 2072 c-6 -9 24 -18 249 -72 94 -22 181 -45 195 -51 14 -5 37
-31 53 -57 15 -26 48 -76 73 -112 26 -36 53 -74 60 -84 7 -11 16 -17 19 -15 5
6 -46 91 -133 221 -46 71 -44 70 -157 97 -22 5 -104 25 -182 45 -149 38 -169
41 -177 28z"/>
<path d="M698 2042 c-10 -2 -18 -8 -18 -13 0 -5 8 -9 18 -9 40 0 492 -118 506
-133 6 -7 23 -28 36 -47 13 -19 28 -39 32 -45 5 -5 32 -41 60 -80 67 -90 88
-113 88 -95 0 7 -40 67 -89 134 -48 67 -94 131 -102 143 -15 24 -38 35 -114
53 -27 6 -66 15 -85 20 -27 7 -225 55 -305 74 -5 1 -18 1 -27 -2z"/>
<path d="M600 2001 c0 -5 21 -14 48 -20 26 -6 112 -28 192 -50 357 -96 327
-84 386 -158 43 -53 136 -165 144 -173 3 -3 18 -20 33 -38 16 -20 27 -27 27
-19 0 13 -66 103 -148 202 -9 11 -30 37 -45 58 -50 66 -63 73 -225 115 -330
86 -412 103 -412 83z"/>
<path d="M527 1973 c-18 -17 4 -27 143 -64 19 -5 123 -34 230 -65 107 -31 205
-58 217 -61 19 -4 272 -260 281 -284 2 -5 13 -14 24 -20 18 -10 19 -9 7 13 -7
12 -17 28 -23 34 -6 7 -51 59 -101 115 -119 137 -158 175 -186 182 -13 3 -62
16 -109 30 -89 27 -123 37 -337 92 -150 40 -138 37 -146 28z"/>
<path d="M496 1905 c-6 -18 -9 -16 94 -45 130 -36 318 -93 405 -122 117 -40
159 -66 255 -158 52 -50 116 -112 143 -137 30 -28 47 -39 47 -29 0 8 -69 84
-153 168 l-153 153 -94 31 c-52 17 -115 37 -140 44 -25 7 -65 19 -90 27 -25 8
-97 28 -160 44 -63 16 -122 32 -131 35 -10 2 -19 -2 -23 -11z"/>
<path d="M2325 1902 c-132 -62 -166 -244 -64 -340 60 -57 132 -74 213 -51 58
16 90 44 121 105 23 45 27 64 23 109 -6 70 -48 141 -102 169 -56 28 -140 32
-191 8z m161 -93 c60 -56 50 -180 -18 -215 -56 -29 -131 -10 -158 41 -17 32
-18 116 -1 148 32 60 126 74 177 26z"/>
<path d="M3400 1908 c-151 -43 -191 -267 -65 -364 17 -12 57 -28 90 -35 51
-10 68 -10 105 3 42 14 45 17 45 49 0 28 -3 34 -20 31 -92 -13 -104 -13 -131
1 -46 24 -64 51 -70 103 -6 59 8 89 55 121 36 25 83 29 127 13 32 -12 44 -1
44 42 0 23 -6 29 -37 37 -46 13 -96 13 -143 -1z"/>
<path d="M1660 1711 l0 -201 103 0 c118 0 167 11 202 46 34 34 34 92 0 132
l-24 29 19 37 c22 44 14 87 -25 125 -23 23 -33 25 -150 29 l-125 4 0 -201z
m214 110 c38 -42 -5 -83 -84 -79 -43 3 -45 4 -48 36 -5 55 2 62 61 62 41 0 58
-5 71 -19z m14 -153 c7 -7 12 -24 12 -38 0 -36 -33 -52 -100 -48 l-55 3 -1 40
c-1 22 0 43 3 48 7 12 128 8 141 -5z"/>
<path d="M2060 1710 l0 -200 40 0 40 0 0 200 0 200 -40 0 -40 0 0 -200z"/>
<path d="M2680 1710 l0 -200 39 0 c22 0 41 5 44 13 3 6 2 61 -1 121 -4 78 -2
108 6 105 6 -2 49 -56 95 -119 74 -102 87 -115 116 -118 58 -6 59 0 58 206
l-2 187 -45 0 -45 0 -1 -113 c-1 -62 -3 -115 -6 -117 -2 -2 -42 49 -88 115
l-84 120 -43 0 -43 0 0 -200z"/>
<path d="M3120 1710 l0 -200 39 0 38 0 7 78 c7 88 7 278 0 305 -4 12 -16 17
-45 17 l-39 0 0 -200z"/>
<path d="M474 1839 c-10 -17 5 -25 81 -47 255 -73 605 -201 605 -221 0 -4 13
-15 30 -24 16 -10 35 -23 42 -30 7 -7 47 -40 88 -72 41 -33 77 -63 78 -67 5
-12 22 -9 22 3 0 12 -5 18 -90 89 -36 30 -72 62 -80 70 -103 104 -212 151
-655 281 -114 33 -112 33 -121 18z"/>
<path d="M445 1770 c-8 -13 3 -30 20 -30 12 0 176 -52 220 -69 11 -5 67 -26
125 -46 263 -95 309 -117 464 -222 62 -43 112 -71 117 -66 11 11 -195 170
-266 206 -99 50 -206 91 -478 181 -175 59 -192 62 -202 46z"/>
<path d="M432 1693 c2 -11 24 -24 58 -36 70 -23 129 -45 260 -95 201 -77 235
-90 260 -97 28 -8 153 -70 215 -105 116 -67 123 -71 130 -60 4 6 5 12 4 14 -2
1 -22 13 -44 27 -147 95 -202 124 -338 177 -220 88 -513 192 -539 192 -5 0 -8
-8 -6 -17z"/>
<path d="M422 1623 c2 -10 27 -27 63 -41 33 -14 69 -28 80 -33 11 -4 58 -22
105 -39 47 -18 130 -49 185 -71 55 -21 103 -39 108 -39 11 0 86 -33 216 -96
79 -39 117 -52 124 -45 6 6 9 13 6 15 -2 2 -56 31 -119 63 -119 62 -177 85
-572 234 -46 17 -104 40 -130 50 -58 23 -70 24 -66 2z"/>
<path d="M420 1556 c0 -32 30 -45 420 -191 216 -81 233 -88 315 -127 67 -32
82 -36 93 -24 12 12 -1 21 -83 60 -54 25 -101 46 -106 46 -5 0 -28 9 -51 20
-24 10 -117 47 -208 80 -247 92 -271 101 -322 127 -56 27 -58 27 -58 9z"/>
<path d="M420 1486 c0 -19 49 -59 91 -75 19 -7 43 -17 54 -22 11 -5 47 -18 80
-29 33 -12 69 -25 80 -30 11 -5 40 -16 65 -24 82 -27 254 -93 314 -120 32 -15
66 -26 74 -24 31 6 21 24 -26 42 -26 11 -67 28 -92 39 -73 31 -61 26 -325 123
-201 73 -295 113 -295 126 0 4 -4 8 -10 8 -5 0 -10 -6 -10 -14z"/>
<path d="M410 1424 c1 -48 51 -78 235 -139 61 -21 124 -43 140 -50 17 -7 62
-24 100 -38 39 -14 106 -38 150 -55 75 -27 105 -31 105 -12 0 7 -51 29 -237
99 -83 32 -307 112 -386 138 -26 9 -61 30 -77 47 -26 26 -30 27 -30 10z"/>
<path d="M1693 1413 c-37 -17 -50 -56 -31 -85 8 -12 34 -28 58 -37 28 -10 46
-24 48 -35 4 -17 -2 -18 -51 -14 -48 4 -56 2 -60 -14 -6 -22 23 -40 67 -40
116 -2 143 102 36 141 -62 23 -61 47 2 44 31 -1 48 3 52 12 12 32 -73 52 -121
28z"/>
<path d="M1924 1416 c-45 -20 -64 -52 -64 -111 0 -37 6 -57 23 -76 29 -35 79
-51 115 -38 74 27 92 50 92 122 0 51 -18 79 -64 101 -41 19 -61 20 -102 2z
m93 -58 c46 -43 19 -118 -42 -118 -87 0 -83 135 4 139 8 1 25 -9 38 -21z"/>
<path d="M2953 1415 c-94 -41 -78 -196 24 -224 60 -17 140 30 145 84 6 76 -14
119 -67 141 -42 17 -61 17 -102 -1z m95 -55 c45 -42 17 -120 -42 -120 -61 0
-86 71 -41 115 29 30 54 32 83 5z"/>
<path d="M3465 1423 c-84 -22 -67 -118 25 -138 21 -5 30 -13 30 -26 0 -16 -8
-21 -40 -21 -3 -1 -20 2 -37 5 -30 6 -33 4 -33 -17 0 -19 7 -25 38 -33 70 -18
131 13 131 67 0 36 -18 55 -69 72 -64 21 -60 44 8 41 45 -2 52 0 52 17 0 10
-3 21 -8 24 -14 8 -77 14 -97 9z"/>
<path d="M2134 1407 c-2 -7 -3 -58 -2 -113 l3 -99 80 0 c73 0 80 2 80 20 0 17
-8 20 -52 23 l-53 3 0 90 c0 89 0 89 -25 89 -14 0 -28 -6 -31 -13z"/>
<path d="M2320 1343 c0 -97 20 -137 77 -152 30 -9 44 -7 73 7 47 23 60 53 60
145 0 76 0 77 -25 77 -24 0 -25 -2 -25 -65 0 -82 -14 -115 -50 -115 -42 0 -50
17 -50 102 l0 78 -30 0 -30 0 0 -77z"/>
<path d="M2560 1395 c0 -22 4 -25 35 -25 l34 0 3 -87 c3 -86 3 -88 28 -88 24
0 25 2 27 75 1 41 2 80 2 87 1 6 16 13 34 15 24 2 33 8 35 26 3 22 1 22 -97
22 l-101 0 0 -25z"/>
<path d="M2800 1304 c0 -114 0 -115 23 -112 21 3 22 7 25 116 l3 112 -26 0
-25 0 0 -116z"/>
<path d="M3172 1308 c3 -105 4 -113 23 -113 18 0 20 8 23 63 2 34 6 62 10 61
4 0 25 -28 48 -62 31 -47 47 -62 65 -62 24 0 24 1 27 113 l3 112 -26 0 c-24 0
-25 -2 -25 -60 0 -33 -3 -60 -7 -60 -5 0 -28 27 -51 60 -33 45 -50 60 -68 60
l-25 0 3 -112z"/>
<path d="M420 1343 c0 -15 45 -60 75 -75 17 -9 80 -32 140 -52 61 -20 118 -41
127 -46 10 -6 27 -10 37 -10 11 0 22 -4 25 -9 3 -5 16 -11 28 -14 13 -2 54
-16 93 -31 69 -26 135 -34 135 -17 0 5 -10 11 -22 14 -13 3 -61 19 -108 37
-47 17 -110 40 -140 50 -30 10 -93 33 -140 50 -47 17 -107 39 -135 47 -27 9
-65 27 -82 40 -18 13 -33 20 -33 16z"/>
<path d="M515 1219 c8 -12 76 -43 216 -99 80 -31 118 -40 150 -38 l44 3 -90
31 c-49 18 -142 50 -205 73 -129 46 -124 45 -115 30z"/>
</g>
</svg>
